<?xml version="1.0" encoding="UTF-8" standalone="no"?>
<svg
   xmlns:dc="http://purl.org/dc/elements/1.1/"
   xmlns:cc="http://creativecommons.org/ns#"
   xmlns:rdf="http://www.w3.org/1999/02/22-rdf-syntax-ns#"
   xmlns:svg="http://www.w3.org/2000/svg"
   xmlns="http://www.w3.org/2000/svg"
   xmlns:xlink="http://www.w3.org/1999/xlink"
   xmlns:sodipodi="http://sodipodi.sourceforge.net/DTD/sodipodi-0.dtd"
   xmlns:inkscape="http://www.inkscape.org/namespaces/inkscape"
   width="744.39996"
   height="740.07684"
   viewBox="0 0 196.95582 195.81199"
   version="1.1"
   id="svg8"
   sodipodi:docname="favicon.svg"
   inkscape:version="1.0.2 (e86c870879, 2021-01-15, custom)">
  <circle
     style="font-size:38.4507px;line-height:1.25;font-family:'SF Pro';-inkscape-font-specification:'SF Pro, Normal';fill:url(#linearGradient1819);fill-opacity:1;stroke:none;stroke-width:0.659859;stroke-linejoin:round"
     id="path911-6"
     cx="-97.905991"
     cy="97.905991"
     transform="scale(-1,1)"
     r="97.905991" />
  <g
     id="g244"
     transform="matrix(1.3513711,0,0,1.3767851,-198.08231,-9.8181641)"
     style="font-size:38.4507px;line-height:1.25;font-family:'SF Pro';-inkscape-font-specification:'SF Pro, Normal';fill:#ffffff;stroke:#ff0000;stroke-width:0.961276">
    <defs
       id="defs133">
      <rect
         id="rect2456"
         width="305.914"
         height="365.05499"
         x="0"
         y="0" />
    </defs>
    <clipPath
       id="XMLID_3_">
      <use
         xlink:href="#XMLID_1_"
         id="use135"
         x="0"
         y="0"
         width="100%"
         height="100%" />
    </clipPath>
    <path
       clip-path="url(#clipPath1057)"
       fill="#aa0122"
       d="m 236.855,57.679 c 3.721,-0.84 7.19,-2.7 10.2,-5.03 0.851,2.76 0.771,5.67 0.75,8.54 2.261,-1.38 4.29,-3.08 6.271,-4.83 0.29,4.42 1.39,8.67 2.56,12.92 -0.58,2.9 -2.79,5.14 -3.509,7.99 0.399,4.04 2.189,7.88 2.019,12.01 0.311,4.75 -1.449,9.32 -1.399,14.05 1.479,6.22 7.82,10.39 8.22,17 0.351,5.871 0.771,11.76 0.411,17.63 -0.271,5.09 -1.411,10.16 -0.691,15.26 0.591,8.33 2.62,16.66 1.311,25.02 -0.41,5.82 -2.851,11.79 -0.8,17.55 2.77,7.819 4.88,16.31 3.35,24.619 -0.34,2.45 -2.37,4.051 -4.21,5.45 0.37,5.55 -1.31,10.851 -2.54,16.17 0.93,2.721 2.87,5.171 2.89,8.141 -0.069,4.68 -1.119,9.359 -0.439,14.03 1.649,5.619 5.39,11.14 3.979,17.229 -0.849,3.84 -2.029,8.76 -6.349,9.97 -4.731,0.7 -9.511,-0.199 -14.241,-0.409 -1.8,1.14 -3.569,2.77 -5.85,2.64 -2.431,0.25 -4.021,-1.88 -5.96,-2.91 -3.63,2.01 -7.57,3.25 -11.57,4.3 -0.56,-2.649 1.68,-5.229 0.74,-7.71 -1.7,0.181 -3.36,0.521 -5.03,0.79 0.25,-3.51 2.64,-6.19 4.521,-8.97 -1.78,-0.2 -4.23,0.79 -5.49,-0.93 1.72,-2.391 4.1,-4.16 6.18,-6.2 -0.67,-1.25 -2.18,-1.61 -3.229,-2.42 -0.061,-1.73 2.159,-2.13 3.22,-3.101 3.22,-2.399 7.63,-3.42 11.43,-1.91 4.42,2.221 5.101,7.61 8.221,11.011 -0.391,-8.34 -6.881,-14.37 -12.83,-19.44 -2.45,-1.92 -3.021,-5.09 -3.82,-7.899 -6.14,2.409 -13.46,5.8 -15.08,12.88 -1.38,8.02 1.53,16.01 1.35,24.039 -0.8,3.53 -3.63,7.2 -7.479,7.581 -3.32,0.6 -6.66,0.01 -9.99,-0.07 -2.06,0.56 -4.02,1.479 -6.149,1.78 -3.5,-0.131 -6.11,-2.65 -9.16,-4 -2.86,0.77 -4.721,3.8 -7.851,3.85 -2.819,0.01 -5.59,0.5 -8.05,1.95 -1.189,-4.07 1.11,-7.63 2.71,-11.181 -1.689,0.261 -3.75,2.881 -5.25,1.32 0.521,-3.7 3.33,-6.55 4.79,-9.91 -1.45,-0.62 -3.879,-0.05 -4.32,-2.029 1.471,-3.011 4.61,-4.57 7.23,-6.4 -1.84,-0.25 -3.68,-0.48 -5.5,-0.81 2.99,-5.351 10.15,-9.69 16.14,-6.671 3.99,1.98 5.221,6.561 7.49,10.04 2.21,-9.25 0.56,-19.159 3.92,-28.2 1.84,-5.189 3.49,-10.64 7.01,-15 1.69,-2.35 3.801,-4.51 4.82,-7.27 -1.61,-5.64 -4.75,-10.88 -5.03,-16.88 -0.489,-9.34 2.79,-18.29 4.96,-27.24 -1.59,4.19 -3.949,8.091 -7.18,11.21 -2.13,1.13 -4.37,2.03 -6.31,3.49 -0.359,-1.41 -0.7,-2.82 -1.091,-4.22 -1.56,1.2 -3.1,2.43 -4.649,3.649 -0.48,-2.209 -0.48,-4.47 -0.4,-6.72 -0.8,0.34 -2.41,1 -3.21,1.34 -0.08,-1.989 -0.189,-4.02 -1.62,-5.56 0.07,-3.53 1.66,-6.94 3.88,-9.64 2.46,-2.67 6.851,-1.83 9.24,-4.6 -3.88,-0.08 -8.13,-0.46 -11.569,1.689 -0.99,-0.468 -1.98,-0.939 -2.971,-1.419 -2.39,1.291 -4.26,3.26 -6.1,5.22 -1.66,-0.98 -1.5,-3.08 -1.99,-4.679 -1.28,0.559 -2.56,1.119 -3.83,1.67 -0.14,-1.351 -0.27,-2.691 -0.41,-4.042 -1.02,0.321 -2.05,0.641 -3.069,0.961 0.189,-2.19 1.14,-4.19 2.64,-5.77 -0.69,-0.06 -2.08,-0.191 -2.77,-0.25 2.42,-4.22 0.88,-9.691 4.039,-13.53 2.98,-2.379 6.75,-3.5 10.311,-4.709 6.03,-1.66 13.51,1.199 18.439,-3.58 2.641,-2.071 5.94,-3.25 8.141,-5.891 2.1,-2.55 4.689,-4.65 6.8,-7.17 1.97,-4.93 4.41,-9.87 5,-15.2 -0.58715,-8.724935 -2.72817,-9.508474 -9.94433,-11.252952 l 1.3972,-6.783395 C 194.79176,90.06045 192.65466,88.253223 189.0574,85.646211 185.60565,82.362374 186.494,77.248 186.494,77.248 c 2.149,2.18 4.58191,6.698944 9.75814,6.383911 10.12411,-0.616169 14.54239,2.702386 20.05946,4.902434 2.4419,0.912072 0.92606,-9.432724 0.29585,-10.653964 -1.68187,-3.259214 -7.28101,-0.08002 -9.57896,1.454858 -0.431,-0.29 -1.2101,-2.647702 -1.6391,-2.937702 L 195.274,74.018 c -0.43,-4.18 -3.359,-8.61 -1.31,-12.71 4.81,-0.85 9.91,1.15 14.88,0.64 6.1,0.65 9.97,-5.95 16.03,-5.44 4.022,10e-4 7.952,1.181 11.981,1.171"
       id="path144"
       style="fill:#ffffff;fill-opacity:1;stroke:none"
       transform="matrix(1.713754,0,0,1.6671463,-157.41207,-55.844603)" />
  </g>
  <g
     id="g978"
     style="stroke:#800000;stroke-width:4.83138;stroke-miterlimit:4;stroke-dasharray:none;paint-order:markers stroke fill;fill:#d40000"
     transform="matrix(1.0952696,0,0,1.0952696,-6.0984843,-6.8137813)">
    <path
       style="font-style:normal;font-variant:normal;font-weight:900;font-stretch:normal;font-size:87.0033px;line-height:1.25;font-family:'SF Pro Text';-inkscape-font-specification:'SF Pro Text, Heavy';font-variant-ligatures:normal;font-variant-caps:normal;font-variant-numeric:normal;font-variant-east-asian:normal;fill:#d40000;stroke:#800000;stroke-width:4.83138;stroke-miterlimit:4;stroke-dasharray:none;paint-order:markers stroke fill"
       d="m 126.21731,133.08617 c 7.71224,0 12.05037,-3.749 12.05037,-10.44365 0,-6.74821 -4.33813,-10.49722 -12.05037,-10.49722 -7.65868,0 -12.05037,3.74901 -12.05037,10.49722 0,6.69465 4.39169,10.44365 12.05037,10.44365 z"
       id="path972" />
    <path
       style="font-style:normal;font-variant:normal;font-weight:900;font-stretch:normal;font-size:87.0033px;line-height:1.25;font-family:'SF Pro Text';-inkscape-font-specification:'SF Pro Text, Heavy';font-variant-ligatures:normal;font-variant-caps:normal;font-variant-numeric:normal;font-variant-east-asian:normal;fill:#d40000;stroke:#800000;stroke-width:4.83138;stroke-miterlimit:4;stroke-dasharray:none;paint-order:markers stroke fill"
       d="m 115.60804,104.70229 h 15.08114 v -1.78425 c 0,-3.823389 1.61432,-5.607637 7.56181,-9.006203 6.49976,-3.738424 9.26109,-7.94415 9.26109,-14.061569 v -0.08496 c 0,-10.62052 -8.75131,-17.460135 -22.34557,-17.460135 -14.10406,0 -22.7704,7.264436 -22.7704,18.947008 v 0.08496 l 15.76085,-0.04248 h 0.085 c 0,-3.48353 2.37899,-5.905009 5.73508,-5.905009 3.3136,0 5.73508,1.954176 5.73508,4.757993 v 0.08496 c 0,3.441049 -1.40191,4.970404 -7.43437,8.453935 -5.90501,3.398566 -7.85918,7.221953 -6.79713,14.99618 z"
       id="path967" />
  </g>
  <sodipodi:namedview
     pagecolor="#ffffff"
     bordercolor="#666666"
     borderopacity="1"
     objecttolerance="10"
     gridtolerance="10"
     guidetolerance="10"
     inkscape:pageopacity="0"
     inkscape:pageshadow="2"
     inkscape:window-width="1288"
     inkscape:window-height="1378"
     id="namedview148"
     showgrid="false"
     units="px"
     fit-margin-top="0"
     fit-margin-left="0"
     fit-margin-right="0"
     fit-margin-bottom="0"
     inkscape:zoom="0.5270435"
     inkscape:cx="279.41451"
     inkscape:cy="175.95338"
     inkscape:window-x="1283"
     inkscape:window-y="30"
     inkscape:window-maximized="0"
     inkscape:current-layer="svg8"
     inkscape:document-rotation="0" />
  <defs
     id="defs2">
    <linearGradient
       id="linearGradient984">
      <stop
         style="stop-color:#214478;stop-opacity:1"
         offset="0"
         id="stop980" />
      <stop
         style="stop-color:#5599ff;stop-opacity:1"
         offset="1"
         id="stop982" />
    </linearGradient>
    <linearGradient
       id="linearGradient934">
      <stop
         style="stop-color:#fff400;stop-opacity:1"
         offset="0"
         id="stop930" />
      <stop
         style="stop-color:#ffb600;stop-opacity:1"
         offset="1"
         id="stop932" />
    </linearGradient>
    <mask
       maskUnits="userSpaceOnUse"
       id="mask877">
      <ellipse
         style="opacity:1;fill:#ffffff;fill-opacity:1;stroke:none;stroke-width:0.591924;stroke-linejoin:round"
         id="circle879"
         cx="-160.80736"
         cy="-33.001015"
         rx="104.44099"
         ry="146.37437" />
    </mask>
    <clipPath
       id="XMLID_3_-1">
      <use
         xlink:href="#XMLID_1_"
         id="use135-4"
         x="0"
         y="0"
         width="100%"
         height="100%" />
    </clipPath>
    <clipPath
       id="clipPath22311">
      <use
         xlink:href="#XMLID_1_"
         id="use22309"
         x="0"
         y="0"
         width="100%"
         height="100%" />
    </clipPath>
    <clipPath
       id="clipPath22315">
      <use
         xlink:href="#XMLID_1_"
         id="use22313"
         x="0"
         y="0"
         width="100%"
         height="100%" />
    </clipPath>
    <clipPath
       id="clipPath22319">
      <use
         xlink:href="#XMLID_1_"
         id="use22317"
         x="0"
         y="0"
         width="100%"
         height="100%" />
    </clipPath>
    <clipPath
       id="clipPath22323">
      <use
         xlink:href="#XMLID_1_"
         id="use22321"
         x="0"
         y="0"
         width="100%"
         height="100%" />
    </clipPath>
    <clipPath
       id="clipPath22327">
      <use
         xlink:href="#XMLID_1_"
         id="use22325"
         x="0"
         y="0"
         width="100%"
         height="100%" />
    </clipPath>
    <clipPath
       id="clipPath22331">
      <use
         xlink:href="#XMLID_1_"
         id="use22329"
         x="0"
         y="0"
         width="100%"
         height="100%" />
    </clipPath>
    <clipPath
       id="clipPath22335">
      <use
         xlink:href="#XMLID_1_"
         id="use22333"
         x="0"
         y="0"
         width="100%"
         height="100%" />
    </clipPath>
    <clipPath
       id="clipPath22339">
      <use
         xlink:href="#XMLID_1_"
         id="use22337"
         x="0"
         y="0"
         width="100%"
         height="100%" />
    </clipPath>
    <clipPath
       id="clipPath22343">
      <use
         xlink:href="#XMLID_1_"
         id="use22341"
         x="0"
         y="0"
         width="100%"
         height="100%" />
    </clipPath>
    <clipPath
       id="clipPath22347">
      <use
         xlink:href="#XMLID_1_"
         id="use22345"
         x="0"
         y="0"
         width="100%"
         height="100%" />
    </clipPath>
    <clipPath
       id="clipPath22351">
      <use
         xlink:href="#XMLID_1_"
         id="use22349"
         x="0"
         y="0"
         width="100%"
         height="100%" />
    </clipPath>
    <clipPath
       id="clipPath22355">
      <use
         xlink:href="#XMLID_1_"
         id="use22353"
         x="0"
         y="0"
         width="100%"
         height="100%" />
    </clipPath>
    <clipPath
       id="clipPath22359">
      <use
         xlink:href="#XMLID_1_"
         id="use22357"
         x="0"
         y="0"
         width="100%"
         height="100%" />
    </clipPath>
    <clipPath
       id="clipPath22363">
      <use
         xlink:href="#XMLID_1_"
         id="use22361"
         x="0"
         y="0"
         width="100%"
         height="100%" />
    </clipPath>
    <clipPath
       id="clipPath22367">
      <use
         xlink:href="#XMLID_1_"
         id="use22365"
         x="0"
         y="0"
         width="100%"
         height="100%" />
    </clipPath>
    <clipPath
       id="clipPath22371">
      <use
         xlink:href="#XMLID_1_"
         id="use22369"
         x="0"
         y="0"
         width="100%"
         height="100%" />
    </clipPath>
    <clipPath
       id="clipPath22375">
      <use
         xlink:href="#XMLID_1_"
         id="use22373"
         x="0"
         y="0"
         width="100%"
         height="100%" />
    </clipPath>
    <clipPath
       id="clipPath22379">
      <use
         xlink:href="#XMLID_1_"
         id="use22377"
         x="0"
         y="0"
         width="100%"
         height="100%" />
    </clipPath>
    <clipPath
       id="clipPath22383">
      <use
         xlink:href="#XMLID_1_"
         id="use22381"
         x="0"
         y="0"
         width="100%"
         height="100%" />
    </clipPath>
    <clipPath
       id="clipPath22387">
      <use
         xlink:href="#XMLID_1_"
         id="use22385"
         x="0"
         y="0"
         width="100%"
         height="100%" />
    </clipPath>
    <clipPath
       id="clipPath22391">
      <use
         xlink:href="#XMLID_1_"
         id="use22389"
         x="0"
         y="0"
         width="100%"
         height="100%" />
    </clipPath>
    <clipPath
       id="clipPath22395">
      <use
         xlink:href="#XMLID_1_"
         id="use22393"
         x="0"
         y="0"
         width="100%"
         height="100%" />
    </clipPath>
    <clipPath
       id="clipPath22399">
      <use
         xlink:href="#XMLID_1_"
         id="use22397"
         x="0"
         y="0"
         width="100%"
         height="100%" />
    </clipPath>
    <clipPath
       id="clipPath22403">
      <use
         xlink:href="#XMLID_1_"
         id="use22401"
         x="0"
         y="0"
         width="100%"
         height="100%" />
    </clipPath>
    <clipPath
       id="clipPath22407">
      <use
         xlink:href="#XMLID_1_"
         id="use22405"
         x="0"
         y="0"
         width="100%"
         height="100%" />
    </clipPath>
    <clipPath
       id="clipPath22411">
      <use
         xlink:href="#XMLID_1_"
         id="use22409"
         x="0"
         y="0"
         width="100%"
         height="100%" />
    </clipPath>
    <clipPath
       id="clipPath22415">
      <use
         xlink:href="#XMLID_1_"
         id="use22413"
         x="0"
         y="0"
         width="100%"
         height="100%" />
    </clipPath>
    <clipPath
       id="clipPath22419">
      <use
         xlink:href="#XMLID_1_"
         id="use22417"
         x="0"
         y="0"
         width="100%"
         height="100%" />
    </clipPath>
    <clipPath
       id="clipPath22423">
      <use
         xlink:href="#XMLID_1_"
         id="use22421"
         x="0"
         y="0"
         width="100%"
         height="100%" />
    </clipPath>
    <clipPath
       id="clipPath22427">
      <use
         xlink:href="#XMLID_1_"
         id="use22425"
         x="0"
         y="0"
         width="100%"
         height="100%" />
    </clipPath>
    <clipPath
       id="clipPath22431">
      <use
         xlink:href="#XMLID_1_"
         id="use22429"
         x="0"
         y="0"
         width="100%"
         height="100%" />
    </clipPath>
    <clipPath
       id="clipPath22435">
      <use
         xlink:href="#XMLID_1_"
         id="use22433"
         x="0"
         y="0"
         width="100%"
         height="100%" />
    </clipPath>
    <clipPath
       id="clipPath22439">
      <use
         xlink:href="#XMLID_1_"
         id="use22437"
         x="0"
         y="0"
         width="100%"
         height="100%" />
    </clipPath>
    <clipPath
       id="clipPath22443">
      <use
         xlink:href="#XMLID_1_"
         id="use22441"
         x="0"
         y="0"
         width="100%"
         height="100%" />
    </clipPath>
    <clipPath
       id="clipPath22447">
      <use
         xlink:href="#XMLID_1_"
         id="use22445"
         x="0"
         y="0"
         width="100%"
         height="100%" />
    </clipPath>
    <clipPath
       id="clipPath22451">
      <use
         xlink:href="#XMLID_1_"
         id="use22449"
         x="0"
         y="0"
         width="100%"
         height="100%" />
    </clipPath>
    <clipPath
       id="clipPath22455">
      <use
         xlink:href="#XMLID_1_"
         id="use22453"
         x="0"
         y="0"
         width="100%"
         height="100%" />
    </clipPath>
    <clipPath
       id="clipPath22459">
      <use
         xlink:href="#XMLID_1_"
         id="use22457"
         x="0"
         y="0"
         width="100%"
         height="100%" />
    </clipPath>
    <clipPath
       id="clipPath22463">
      <use
         xlink:href="#XMLID_1_"
         id="use22461"
         x="0"
         y="0"
         width="100%"
         height="100%" />
    </clipPath>
    <clipPath
       id="clipPath22467">
      <use
         xlink:href="#XMLID_1_"
         id="use22465"
         x="0"
         y="0"
         width="100%"
         height="100%" />
    </clipPath>
    <clipPath
       id="clipPath22471">
      <use
         xlink:href="#XMLID_1_"
         id="use22469"
         x="0"
         y="0"
         width="100%"
         height="100%" />
    </clipPath>
    <clipPath
       id="clipPath22475">
      <use
         xlink:href="#XMLID_1_"
         id="use22473"
         x="0"
         y="0"
         width="100%"
         height="100%" />
    </clipPath>
    <clipPath
       id="clipPath22479">
      <use
         xlink:href="#XMLID_1_"
         id="use22477"
         x="0"
         y="0"
         width="100%"
         height="100%" />
    </clipPath>
    <clipPath
       id="clipPath22483">
      <use
         xlink:href="#XMLID_1_"
         id="use22481"
         x="0"
         y="0"
         width="100%"
         height="100%" />
    </clipPath>
    <clipPath
       id="clipPath22487">
      <use
         xlink:href="#XMLID_1_"
         id="use22485"
         x="0"
         y="0"
         width="100%"
         height="100%" />
    </clipPath>
    <clipPath
       id="clipPath22491">
      <use
         xlink:href="#XMLID_1_"
         id="use22489"
         x="0"
         y="0"
         width="100%"
         height="100%" />
    </clipPath>
    <clipPath
       id="clipPath22495">
      <use
         xlink:href="#XMLID_1_"
         id="use22493"
         x="0"
         y="0"
         width="100%"
         height="100%" />
    </clipPath>
    <clipPath
       id="clipPath22499">
      <use
         xlink:href="#XMLID_1_"
         id="use22497"
         x="0"
         y="0"
         width="100%"
         height="100%" />
    </clipPath>
    <clipPath
       id="clipPath22503">
      <use
         xlink:href="#XMLID_1_"
         id="use22501"
         x="0"
         y="0"
         width="100%"
         height="100%" />
    </clipPath>
    <clipPath
       id="clipPath22507">
      <use
         xlink:href="#XMLID_1_"
         id="use22505"
         x="0"
         y="0"
         width="100%"
         height="100%" />
    </clipPath>
    <clipPath
       id="clipPath22511">
      <use
         xlink:href="#XMLID_1_"
         id="use22509"
         x="0"
         y="0"
         width="100%"
         height="100%" />
    </clipPath>
    <clipPath
       id="clipPath22515">
      <use
         xlink:href="#XMLID_1_"
         id="use22513"
         x="0"
         y="0"
         width="100%"
         height="100%" />
    </clipPath>
    <rect
       id="XMLID_1_"
       width="305.914"
       height="365.05499"
       x="0"
       y="0" />
    <clipPath
       clipPathUnits="userSpaceOnUse"
       id="clipPath1745">
      <circle
         style="fill:url(#linearGradient1749);fill-opacity:1;stroke:none;stroke-width:0.101156;stroke-linejoin:round"
         id="circle1747"
         cx="-75.593063"
         cy="-137.98854"
         r="15.008965" />
    </clipPath>
    <linearGradient
       xlink:href="#linearGradient934"
       id="linearGradient1749"
       gradientUnits="userSpaceOnUse"
       gradientTransform="matrix(0.15827194,0,0,0.15827194,-36.412006,-128.04642)"
       x1="-299.80865"
       y1="-138.29387"
       x2="-185.62534"
       y2="8.1446419" />
    <linearGradient
       xlink:href="#linearGradient984"
       id="linearGradient1819"
       x1="-48.664845"
       y1="-378.44287"
       x2="-48.664845"
       y2="-109.11021"
       gradientUnits="userSpaceOnUse"
       gradientTransform="matrix(1.0324344,0,0,1.0324344,-51.950114,309.70262)" />
    <linearGradient
       id="linearGradient1817">
      <stop
         style="stop-color:#162d50;stop-opacity:1"
         offset="0"
         id="stop1813" />
      <stop
         style="stop-color:#5599ff;stop-opacity:1"
         offset="1"
         id="stop1815" />
    </linearGradient>
    <linearGradient
       xlink:href="#linearGradient1806"
       id="linearGradient1808"
       x1="198.53297"
       y1="71.703293"
       x2="242.31067"
       y2="152.75276"
       gradientUnits="userSpaceOnUse" />
    <linearGradient
       id="linearGradient1806">
      <stop
         style="stop-color:#ed262f;stop-opacity:1"
         offset="0"
         id="stop1802" />
      <stop
         style="stop-color:#7c0006;stop-opacity:1"
         offset="1"
         id="stop1804" />
    </linearGradient>
    <clipPath
       id="XMLID_3_-1-9">
      <use
         xlink:href="#XMLID_1_"
         id="use135-4-5"
         x="0"
         y="0"
         width="100%"
         height="100%" />
    </clipPath>
    <rect
       id="rect1230"
       width="305.914"
       height="365.05499"
       x="0"
       y="0" />
    <clipPath
       clipPathUnits="userSpaceOnUse"
       id="clipPath1057">
      <path
         id="path1059"
         style="font-size:38.4507px;line-height:1.25;font-family:'SF Pro';-inkscape-font-specification:'SF Pro, Normal';fill:url(#linearGradient1061);fill-opacity:1;stroke:none;stroke-width:0.23334;stroke-linejoin:round"
         d="m 185.19105,80.429571 c 0,19.206685 15.4315,34.776779 34.46721,34.776779 19.03572,0 34.46721,-15.570094 34.46721,-34.776779 0,-1.289391 -1.45212,-3.741249 -0.20506,-3.815393 11.27472,-0.670335 8.98909,-24.347235 6.33581,-28.651767 -2.25625,-3.660435 -16.47595,7.259452 -19.87725,4.673845 -5.76748,-4.384342 -12.94327,-6.983463 -20.72071,-6.983463 -19.03571,10e-7 -34.46721,15.570093 -34.46721,34.776778 z"
         sodipodi:nodetypes="ssssssss" />
    </clipPath>
    <linearGradient
       inkscape:collect="always"
       xlink:href="#linearGradient1817"
       id="linearGradient1061"
       gradientUnits="userSpaceOnUse"
       gradientTransform="matrix(-0.36346223,0,0,0.36672669,203.47977,155.66096)"
       x1="-54.612534"
       y1="-276.81805"
       x2="-48.664845"
       y2="-120.29374" />
  </defs>
  <metadata
     id="metadata5">
    <rdf:RDF>
      <cc:Work
         rdf:about="">
        <dc:format>image/svg+xml</dc:format>
        <dc:type
           rdf:resource="http://purl.org/dc/dcmitype/StillImage" />
        <dc:title />
      </cc:Work>
    </rdf:RDF>
  </metadata>
</svg>
