<?xml version="1.0" encoding="UTF-8" standalone="no"?>
<svg
   xmlns:dc="http://purl.org/dc/elements/1.1/"
   xmlns:cc="http://creativecommons.org/ns#"
   xmlns:rdf="http://www.w3.org/1999/02/22-rdf-syntax-ns#"
   xmlns:svg="http://www.w3.org/2000/svg"
   xmlns="http://www.w3.org/2000/svg"
   width="1000"
   height="1000"
   viewBox="0 0 1000 1000"
   version="1.1"
   id="svg16">
  <metadata
     id="metadata20">
    <rdf:RDF>
      <cc:Work
         rdf:about="">
        <dc:format>image/svg+xml</dc:format>
        <dc:type
           rdf:resource="http://purl.org/dc/dcmitype/StillImage" />
        <dc:title>Artboard</dc:title>
      </cc:Work>
    </rdf:RDF>
  </metadata>
  <!-- Generator: Sketch 53.2 (72643) - https://sketchapp.com -->
  <title
     id="title2">Artboard</title>
  <desc
     id="desc4">Created with Sketch.</desc>
  <path
     id="Path-3"
     style="fill:#000000;fill-rule:evenodd;stroke:none;stroke-width:1"
     d="M 500,0 A 500,500 0 0 0 0,500 500,500 0 0 0 500,1000 500,500 0 0 0 1000,500 500,500 0 0 0 500,0 Z m 204.43164,301.00391 c 4.13619,-0.0729 13.38439,0.95153 19.375,5.8125 5.05835,4.1045 6.44924,9.64949 7.11524,13.54101 0.666,3.89152 1.49518,12.75676 0.83593,19.6836 -7.52462,79.06182 -40.08236,270.924 -56.64648,359.4746 -7.0089,37.46907 -20.8092,50.03224 -34.16992,51.26172 -29.03594,2.67193 -51.08626,-19.19021 -79.20899,-37.625 -44.0065,-28.84682 -68.86609,-46.80395 -111.58203,-74.95312 -49.36565,-32.53123 -17.36381,-50.41037 10.76953,-79.63086 C 468.28255,550.92122 596.21526,434.55612 598.69141,424 c 0.30968,-1.32023 0.59739,-6.24129 -2.32618,-8.83984 -2.92357,-2.59855 -7.23973,-1.71063 -10.35351,-1.00391 -4.41369,1.00174 -74.71411,47.46947 -210.90234,139.40039 -19.95469,13.70243 -38.02867,20.37916 -54.22266,20.0293 -17.85257,-0.3857 -52.19352,-10.09406 -77.72266,-18.39258 -31.31254,-10.17847 -56.20027,-15.56147 -54.0332,-32.84766 1.12874,-9.00372 13.52809,-18.2106 37.19726,-27.62304 145.76016,-63.50539 242.95747,-105.37172 291.58985,-125.59961 138.85531,-57.75473 167.70772,-67.78786 186.51367,-68.11914 z" />
  <defs
     id="defs11">
    <linearGradient
       x1="500"
       y1="0"
       x2="500"
       y2="992.58337"
       id="linearGradient-1"
       gradientUnits="userSpaceOnUse">
      <stop
         stop-color="#2AABEE"
         offset="0%"
         id="stop6" />
      <stop
         stop-color="#229ED9"
         offset="100%"
         id="stop8" />
    </linearGradient>
  </defs>
</svg>
